<svg width="31" height="31" viewBox="0 0 31 31" fill="none" xmlns="http://www.w3.org/2000/svg">
<path d="M15.5 21.2106C15.3662 21.2107 15.2336 21.1845 15.11 21.1332C14.9864 21.082 14.8741 21.0068 14.7797 20.912L8.66124 14.7936C8.47543 14.6013 8.37257 14.3437 8.37482 14.0764C8.37707 13.809 8.48424 13.5532 8.67326 13.3641C8.86227 13.1749 9.118 13.0676 9.38538 13.0652C9.65275 13.0628 9.91036 13.1655 10.1027 13.3512L15.5 18.7477L20.8973 13.3521C21.0896 13.1664 21.3473 13.0636 21.6146 13.066C21.882 13.0684 22.1377 13.1758 22.3268 13.3649C22.5158 13.554 22.6229 13.8098 22.6252 14.0772C22.6274 14.3445 22.5246 14.6021 22.3388 14.7944L16.2203 20.9128C16.1258 21.0074 16.0135 21.0824 15.8899 21.1335C15.7663 21.1846 15.6338 21.2108 15.5 21.2106V21.2106Z" fill="#00738C"/>
</svg>
