<svg width="151" height="42" viewBox="0 0 151 42" fill="none" xmlns="http://www.w3.org/2000/svg">
<path d="M61.144 13.272V15.048H56.584V30H54.4V15.048H49.816V13.272H61.144ZM69.0884 30.216C67.8564 30.216 66.7364 29.936 65.7284 29.376C64.7364 28.816 63.9524 28.024 63.3764 27C62.8164 25.96 62.5364 24.76 62.5364 23.4C62.5364 22.056 62.8244 20.872 63.4004 19.848C63.9924 18.808 64.7924 18.016 65.8004 17.472C66.8084 16.912 67.9364 16.632 69.1844 16.632C70.4324 16.632 71.5604 16.912 72.5684 17.472C73.5764 18.016 74.3684 18.8 74.9444 19.824C75.5364 20.848 75.8324 22.04 75.8324 23.4C75.8324 24.76 75.5284 25.96 74.9204 27C74.3284 28.024 73.5204 28.816 72.4964 29.376C71.4724 29.936 70.3364 30.216 69.0884 30.216ZM69.0884 28.296C69.8724 28.296 70.6084 28.112 71.2964 27.744C71.9844 27.376 72.5364 26.824 72.9524 26.088C73.3844 25.352 73.6004 24.456 73.6004 23.4C73.6004 22.344 73.3924 21.448 72.9764 20.712C72.5604 19.976 72.0164 19.432 71.3444 19.08C70.6724 18.712 69.9444 18.528 69.1604 18.528C68.3604 18.528 67.6244 18.712 66.9524 19.08C66.2964 19.432 65.7684 19.976 65.3684 20.712C64.9684 21.448 64.7684 22.344 64.7684 23.4C64.7684 24.472 64.9604 25.376 65.3444 26.112C65.7444 26.848 66.2724 27.4 66.9284 27.768C67.5844 28.12 68.3044 28.296 69.0884 28.296ZM83.4319 13.272C85.2559 13.272 86.8319 13.616 88.1599 14.304C89.5039 14.976 90.5279 15.944 91.2319 17.208C91.9519 18.472 92.3119 19.96 92.3119 21.672C92.3119 23.384 91.9519 24.872 91.2319 26.136C90.5279 27.384 89.5039 28.344 88.1599 29.016C86.8319 29.672 85.2559 30 83.4319 30H78.2239V13.272H83.4319ZM83.4319 28.2C85.5919 28.2 87.2399 27.632 88.3759 26.496C89.5119 25.344 90.0799 23.736 90.0799 21.672C90.0799 19.592 89.5039 17.968 88.3519 16.8C87.2159 15.632 85.5759 15.048 83.4319 15.048H80.4079V28.2H83.4319ZM100.449 30.216C99.2167 30.216 98.0967 29.936 97.0887 29.376C96.0967 28.816 95.3127 28.024 94.7367 27C94.1767 25.96 93.8967 24.76 93.8967 23.4C93.8967 22.056 94.1847 20.872 94.7607 19.848C95.3527 18.808 96.1527 18.016 97.1607 17.472C98.1687 16.912 99.2967 16.632 100.545 16.632C101.793 16.632 102.921 16.912 103.929 17.472C104.937 18.016 105.729 18.8 106.305 19.824C106.897 20.848 107.193 22.04 107.193 23.4C107.193 24.76 106.889 25.96 106.281 27C105.689 28.024 104.881 28.816 103.857 29.376C102.833 29.936 101.697 30.216 100.449 30.216ZM100.449 28.296C101.233 28.296 101.969 28.112 102.657 27.744C103.345 27.376 103.897 26.824 104.313 26.088C104.745 25.352 104.961 24.456 104.961 23.4C104.961 22.344 104.753 21.448 104.337 20.712C103.921 19.976 103.377 19.432 102.705 19.08C102.033 18.712 101.305 18.528 100.521 18.528C99.7207 18.528 98.9847 18.712 98.3127 19.08C97.6567 19.432 97.1287 19.976 96.7287 20.712C96.3287 21.448 96.1287 22.344 96.1287 23.4C96.1287 24.472 96.3207 25.376 96.7047 26.112C97.1047 26.848 97.6327 27.4 98.2887 27.768C98.9447 28.12 99.6647 28.296 100.449 28.296Z" fill="#29125E"/>
<path d="M61.144 13.272H62.144V12.272H61.144V13.272ZM61.144 15.048V16.048H62.144V15.048H61.144ZM56.584 15.048V14.048H55.584V15.048H56.584ZM56.584 30V31H57.584V30H56.584ZM54.4 30H53.4V31H54.4V30ZM54.4 15.048H55.4V14.048H54.4V15.048ZM49.816 15.048H48.816V16.048H49.816V15.048ZM49.816 13.272V12.272H48.816V13.272H49.816ZM60.144 13.272V15.048H62.144V13.272H60.144ZM61.144 14.048H56.584V16.048H61.144V14.048ZM55.584 15.048V30H57.584V15.048H55.584ZM56.584 29H54.4V31H56.584V29ZM55.4 30V15.048H53.4V30H55.4ZM54.4 14.048H49.816V16.048H54.4V14.048ZM50.816 15.048V13.272H48.816V15.048H50.816ZM49.816 14.272H61.144V12.272H49.816V14.272ZM65.7284 29.376L65.2368 30.2468L65.2427 30.2502L65.7284 29.376ZM63.3764 27L62.4959 27.4741L62.5003 27.4822L62.5048 27.4903L63.3764 27ZM63.4004 19.848L62.5313 19.3533L62.5288 19.3577L63.4004 19.848ZM65.8004 17.472L66.2753 18.3521L66.286 18.3462L65.8004 17.472ZM72.5684 17.472L72.0827 18.3462L72.0934 18.352L72.5684 17.472ZM74.9444 19.824L74.0727 20.3143L74.0786 20.3245L74.9444 19.824ZM74.9204 27L74.0571 26.4953L74.0546 26.4995L74.9204 27ZM72.4964 29.376L72.9762 30.2534L72.4964 29.376ZM72.9524 26.088L72.09 25.5818L72.0858 25.5888L72.0818 25.5959L72.9524 26.088ZM71.3444 19.08L70.8641 19.9571L70.8722 19.9615L70.8804 19.9658L71.3444 19.08ZM66.9524 19.08L67.4252 19.9612L67.4327 19.9571L66.9524 19.08ZM65.3684 20.712L66.247 21.1895L65.3684 20.712ZM65.3444 26.112L64.4578 26.5746L64.4617 26.5821L64.4658 26.5895L65.3444 26.112ZM66.9284 27.768L66.4391 28.6401L66.4473 28.6447L66.4556 28.6492L66.9284 27.768ZM69.0884 29.216C68.0143 29.216 67.0633 28.9737 66.214 28.5018L65.2427 30.2502C66.4094 30.8983 67.6984 31.216 69.0884 31.216V29.216ZM66.22 28.5052C65.3922 28.0379 64.7374 27.3798 64.248 26.5097L62.5048 27.4903C63.1674 28.6682 64.0806 29.5941 65.2368 30.2468L66.22 28.5052ZM64.2568 26.5259C63.7865 25.6523 63.5364 24.6198 63.5364 23.4H61.5364C61.5364 24.9002 61.8463 26.2677 62.4959 27.4741L64.2568 26.5259ZM63.5364 23.4C63.5364 22.2027 63.7916 21.1922 64.272 20.3383L62.5288 19.3577C61.8571 20.5518 61.5364 21.9093 61.5364 23.4H63.5364ZM64.2694 20.3427C64.7731 19.4579 65.4398 18.8029 66.2753 18.352L65.3254 16.592C64.145 17.229 63.2116 18.1581 62.5313 19.3533L64.2694 20.3427ZM66.286 18.3462C67.1334 17.8754 68.0919 17.632 69.1844 17.632V15.632C67.7808 15.632 66.4834 15.9486 65.3147 16.5978L66.286 18.3462ZM69.1844 17.632C70.2768 17.632 71.2354 17.8754 72.0827 18.3462L73.054 16.5978C71.8854 15.9486 70.5879 15.632 69.1844 15.632V17.632ZM72.0934 18.352C72.9306 18.8038 73.587 19.4506 74.0728 20.3143L75.816 19.3337C75.1498 18.1494 74.2222 17.2282 73.0433 16.592L72.0934 18.352ZM74.0786 20.3245C74.5702 21.1748 74.8324 22.189 74.8324 23.4H76.8324C76.8324 21.891 76.5025 20.5212 75.8101 19.3235L74.0786 20.3245ZM74.8324 23.4C74.8324 24.606 74.5645 25.6274 74.0571 26.4953L75.7837 27.5047C76.4923 26.2926 76.8324 24.914 76.8324 23.4H74.8324ZM74.0546 26.4995C73.553 27.3671 72.8776 28.0278 72.0166 28.4986L72.9762 30.2534C74.1632 29.6042 75.1037 28.6809 75.7861 27.5005L74.0546 26.4995ZM72.0166 28.4986C71.1499 28.9726 70.1807 29.216 69.0884 29.216V31.216C70.4921 31.216 71.7949 30.8994 72.9762 30.2534L72.0166 28.4986ZM69.0884 29.296C70.0361 29.296 70.9342 29.0718 71.768 28.6258L70.8247 26.8622C70.2826 27.1522 69.7087 27.296 69.0884 27.296V29.296ZM71.768 28.6258C72.6372 28.1609 73.3217 27.4668 73.8229 26.5801L72.0818 25.5959C71.751 26.1812 71.3315 26.5911 70.8247 26.8622L71.768 28.6258ZM73.8148 26.5942C74.356 25.6722 74.6004 24.592 74.6004 23.4H72.6004C72.6004 24.32 72.4128 25.0318 72.09 25.5818L73.8148 26.5942ZM74.6004 23.4C74.6004 22.2139 74.3664 21.1391 73.8469 20.2199L72.1058 21.2041C72.4183 21.7569 72.6004 22.4741 72.6004 23.4H74.6004ZM73.8469 20.2199C73.3474 19.3361 72.6701 18.6456 71.8084 18.1942L70.8804 19.9658C71.3626 20.2184 71.7734 20.6159 72.1058 21.2041L73.8469 20.2199ZM71.8247 18.2029C71.0019 17.7523 70.1082 17.528 69.1604 17.528V19.528C69.7806 19.528 70.3428 19.6717 70.8641 19.9571L71.8247 18.2029ZM69.1604 17.528C68.2002 17.528 67.2979 17.7507 66.4721 18.2029L67.4327 19.9571C67.9508 19.6733 68.5206 19.528 69.1604 19.528V17.528ZM66.4796 18.1988C65.6309 18.6542 64.9708 19.3494 64.4898 20.2345L66.247 21.1895C66.566 20.6026 66.9618 20.2098 67.4252 19.9612L66.4796 18.1988ZM64.4898 20.2345C63.992 21.1504 63.7684 22.2198 63.7684 23.4H65.7684C65.7684 22.4682 65.9448 21.7456 66.247 21.1895L64.4898 20.2345ZM63.7684 23.4C63.7684 24.5876 63.9808 25.6602 64.4578 26.5746L66.231 25.6494C65.94 25.0918 65.7684 24.3564 65.7684 23.4H63.7684ZM64.4658 26.5895C64.9452 27.4717 65.6005 28.1697 66.4391 28.6401L67.4176 26.8959C66.9443 26.6303 66.5436 26.2243 66.223 25.6345L64.4658 26.5895ZM66.4556 28.6492C67.2647 29.0833 68.1484 29.296 69.0884 29.296V27.296C68.4603 27.296 67.904 27.1567 67.4012 26.8868L66.4556 28.6492ZM88.1599 14.304L87.6999 15.1919L87.7063 15.1952L87.7127 15.1984L88.1599 14.304ZM91.2319 17.208L90.3583 17.6946L90.363 17.703L91.2319 17.208ZM91.2319 26.136L90.363 25.641L90.361 25.6447L91.2319 26.136ZM88.1599 29.016L88.6028 29.9126L88.6072 29.9104L88.1599 29.016ZM78.2239 30H77.2239V31H78.2239V30ZM78.2239 13.272V12.272H77.2239V13.272H78.2239ZM88.3759 26.496L89.0831 27.2031L89.088 27.1981L88.3759 26.496ZM88.3519 16.8L87.6351 17.4972L87.64 17.5022L88.3519 16.8ZM80.4079 15.048V14.048H79.4079V15.048H80.4079ZM80.4079 28.2H79.4079V29.2H80.4079V28.2ZM83.4319 14.272C85.1305 14.272 86.542 14.592 87.6999 15.1919L88.6199 13.4161C87.1219 12.64 85.3813 12.272 83.4319 12.272V14.272ZM87.7127 15.1984C88.8842 15.7841 89.7561 16.6134 90.3583 17.6946L92.1056 16.7214C91.2998 15.2746 90.1237 14.1679 88.6072 13.4096L87.7127 15.1984ZM90.363 17.703C90.983 18.7914 91.3119 20.1027 91.3119 21.672H93.3119C93.3119 19.8173 92.9209 18.1526 92.1009 16.713L90.363 17.703ZM91.3119 21.672C91.3119 23.2413 90.983 24.5526 90.363 25.641L92.1009 26.631C92.9209 25.1914 93.3119 23.5267 93.3119 21.672H91.3119ZM90.361 25.6447C89.7598 26.7104 88.8876 27.5341 87.7127 28.1216L88.6072 29.9104C90.1203 29.1539 91.2961 28.0576 92.1029 26.6273L90.361 25.6447ZM87.7171 28.1194C86.555 28.6935 85.1372 29 83.4319 29V31C85.3747 31 87.1089 30.6505 88.6028 29.9126L87.7171 28.1194ZM83.4319 29H78.2239V31H83.4319V29ZM79.2239 30V13.272H77.2239V30H79.2239ZM78.2239 14.272H83.4319V12.272H78.2239V14.272ZM83.4319 29.2C85.763 29.2 87.7021 28.5841 89.083 27.2031L87.6688 25.7889C86.7778 26.6799 85.4208 27.2 83.4319 27.2V29.2ZM89.088 27.1981C90.4557 25.8112 91.0799 23.9229 91.0799 21.672H89.0799C89.0799 23.5491 88.5682 24.8768 87.6639 25.7939L89.088 27.1981ZM91.0799 21.672C91.0799 19.403 90.4465 17.4996 89.0639 16.0978L87.64 17.5022C88.5613 18.4364 89.0799 19.781 89.0799 21.672H91.0799ZM89.0688 16.1028C87.6904 14.6856 85.7571 14.048 83.4319 14.048V16.048C85.3948 16.048 86.7414 16.5784 87.6351 17.4972L89.0688 16.1028ZM83.4319 14.048H80.4079V16.048H83.4319V14.048ZM79.4079 15.048V28.2H81.4079V15.048H79.4079ZM80.4079 29.2H83.4319V27.2H80.4079V29.2ZM97.0887 29.376L96.5971 30.2468L96.603 30.2502L97.0887 29.376ZM94.7367 27L93.8562 27.4741L93.8606 27.4822L93.8651 27.4903L94.7367 27ZM94.7607 19.848L93.8916 19.3533L93.8891 19.3577L94.7607 19.848ZM97.1607 17.472L97.6357 18.3521L97.6463 18.3462L97.1607 17.472ZM103.929 17.472L103.443 18.3462L103.454 18.352L103.929 17.472ZM106.305 19.824L105.433 20.3143L105.439 20.3245L106.305 19.824ZM106.281 27L105.417 26.4953L105.415 26.4995L106.281 27ZM103.857 29.376L104.337 30.2534L103.857 29.376ZM104.313 26.088L103.45 25.5818L103.446 25.5888L103.442 25.5959L104.313 26.088ZM102.705 19.08L102.224 19.9571L102.232 19.9615L102.241 19.9658L102.705 19.08ZM98.3127 19.08L98.7855 19.9612L98.793 19.9571L98.3127 19.08ZM96.7287 20.712L97.6073 21.1895L96.7287 20.712ZM96.7047 26.112L95.8181 26.5746L95.822 26.5821L95.8261 26.5895L96.7047 26.112ZM98.2887 27.768L97.7994 28.6401L97.8076 28.6447L97.8159 28.6492L98.2887 27.768ZM100.449 29.216C99.3746 29.216 98.4236 28.9737 97.5743 28.5018L96.603 30.2502C97.7698 30.8983 99.0587 31.216 100.449 31.216V29.216ZM97.5803 28.5052C96.7525 28.0379 96.0977 27.3798 95.6083 26.5097L93.8651 27.4903C94.5277 28.6682 95.4409 29.5941 96.5971 30.2468L97.5803 28.5052ZM95.6172 26.5259C95.1468 25.6523 94.8967 24.6198 94.8967 23.4H92.8967C92.8967 24.9002 93.2066 26.2677 93.8562 27.4741L95.6172 26.5259ZM94.8967 23.4C94.8967 22.2027 95.1519 21.1922 95.6323 20.3383L93.8891 19.3577C93.2174 20.5518 92.8967 21.9093 92.8967 23.4H94.8967ZM95.6298 20.3427C96.1334 19.4579 96.8001 18.8029 97.6356 18.352L96.6858 16.592C95.5053 17.229 94.572 18.1581 93.8916 19.3533L95.6298 20.3427ZM97.6463 18.3462C98.4937 17.8754 99.4523 17.632 100.545 17.632V15.632C99.1411 15.632 97.8437 15.9486 96.675 16.5978L97.6463 18.3462ZM100.545 17.632C101.637 17.632 102.596 17.8754 103.443 18.3462L104.414 16.5978C103.246 15.9486 101.948 15.632 100.545 15.632V17.632ZM103.454 18.352C104.291 18.8038 104.947 19.4506 105.433 20.3143L107.176 19.3337C106.51 18.1494 105.582 17.2282 104.404 16.592L103.454 18.352ZM105.439 20.3245C105.931 21.1748 106.193 22.189 106.193 23.4H108.193C108.193 21.891 107.863 20.5212 107.17 19.3235L105.439 20.3245ZM106.193 23.4C106.193 24.606 105.925 25.6274 105.417 26.4953L107.144 27.5047C107.853 26.2926 108.193 24.914 108.193 23.4H106.193ZM105.415 26.4995C104.913 27.3671 104.238 28.0278 103.377 28.4986L104.337 30.2534C105.523 29.6042 106.464 28.6809 107.146 27.5005L105.415 26.4995ZM103.377 28.4986C102.51 28.9726 101.541 29.216 100.449 29.216V31.216C101.852 31.216 103.155 30.8994 104.337 30.2534L103.377 28.4986ZM100.449 29.296C101.396 29.296 102.295 29.0718 103.128 28.6258L102.185 26.8622C101.643 27.1522 101.069 27.296 100.449 27.296V29.296ZM103.128 28.6258C103.998 28.1609 104.682 27.4668 105.183 26.5801L103.442 25.5959C103.111 26.1812 102.692 26.5911 102.185 26.8622L103.128 28.6258ZM105.175 26.5942C105.716 25.6722 105.961 24.592 105.961 23.4H103.961C103.961 24.32 103.773 25.0318 103.45 25.5818L105.175 26.5942ZM105.961 23.4C105.961 22.2139 105.727 21.1391 105.207 20.2199L103.466 21.2041C103.779 21.7569 103.961 22.4741 103.961 23.4H105.961ZM105.207 20.2199C104.708 19.3361 104.03 18.6456 103.169 18.1942L102.241 19.9658C102.723 20.2184 103.134 20.6159 103.466 21.2041L105.207 20.2199ZM103.185 18.2029C102.362 17.7523 101.468 17.528 100.521 17.528V19.528C101.141 19.528 101.703 19.6717 102.224 19.9571L103.185 18.2029ZM100.521 17.528C99.5605 17.528 98.6582 17.7507 97.8324 18.2029L98.793 19.9571C99.3112 19.6733 99.8809 19.528 100.521 19.528V17.528ZM97.8399 18.1988C96.9912 18.6542 96.3311 19.3494 95.8501 20.2345L97.6073 21.1895C97.9263 20.6026 98.3222 20.2098 98.7855 19.9612L97.8399 18.1988ZM95.8501 20.2345C95.3523 21.1504 95.1287 22.2198 95.1287 23.4H97.1287C97.1287 22.4682 97.3051 21.7456 97.6073 21.1895L95.8501 20.2345ZM95.1287 23.4C95.1287 24.5876 95.3411 25.6602 95.8181 26.5746L97.5913 25.6494C97.3003 25.0918 97.1287 24.3564 97.1287 23.4H95.1287ZM95.8261 26.5895C96.3055 27.4717 96.9608 28.1697 97.7994 28.6401L98.7779 26.8959C98.3046 26.6303 97.9039 26.2243 97.5833 25.6345L95.8261 26.5895ZM97.8159 28.6492C98.625 29.0833 99.5087 29.296 100.449 29.296V27.296C99.8206 27.296 99.2643 27.1567 98.7615 26.8868L97.8159 28.6492Z" fill="#29125E"/>
<path d="M118.032 27.224H123.888V29H115.848V12.272H118.032V27.224ZM126.855 13.712C126.439 13.712 126.087 13.568 125.799 13.28C125.511 12.992 125.367 12.64 125.367 12.224C125.367 11.808 125.511 11.456 125.799 11.168C126.087 10.88 126.439 10.736 126.855 10.736C127.255 10.736 127.591 10.88 127.863 11.168C128.151 11.456 128.295 11.808 128.295 12.224C128.295 12.64 128.151 12.992 127.863 13.28C127.591 13.568 127.255 13.712 126.855 13.712ZM127.911 15.848V29H125.727V15.848H127.911ZM135.81 29.216C134.802 29.216 133.898 29.048 133.098 28.712C132.298 28.36 131.666 27.88 131.202 27.272C130.738 26.648 130.482 25.936 130.434 25.136H132.69C132.754 25.792 133.058 26.328 133.602 26.744C134.162 27.16 134.89 27.368 135.786 27.368C136.618 27.368 137.274 27.184 137.754 26.816C138.234 26.448 138.474 25.984 138.474 25.424C138.474 24.848 138.218 24.424 137.706 24.152C137.194 23.864 136.402 23.584 135.33 23.312C134.354 23.056 133.554 22.8 132.93 22.544C132.322 22.272 131.794 21.88 131.346 21.368C130.914 20.84 130.698 20.152 130.698 19.304C130.698 18.632 130.898 18.016 131.298 17.456C131.698 16.896 132.266 16.456 133.002 16.136C133.738 15.8 134.578 15.632 135.522 15.632C136.978 15.632 138.154 16 139.05 16.736C139.946 17.472 140.426 18.48 140.49 19.76H138.306C138.258 19.072 137.978 18.52 137.466 18.104C136.97 17.688 136.298 17.48 135.45 17.48C134.666 17.48 134.042 17.648 133.578 17.984C133.114 18.32 132.882 18.76 132.882 19.304C132.882 19.736 133.018 20.096 133.29 20.384C133.578 20.656 133.93 20.88 134.346 21.056C134.778 21.216 135.37 21.4 136.122 21.608C137.066 21.864 137.834 22.12 138.426 22.376C139.018 22.616 139.522 22.984 139.938 23.48C140.37 23.976 140.594 24.624 140.61 25.424C140.61 26.144 140.41 26.792 140.01 27.368C139.61 27.944 139.042 28.4 138.306 28.736C137.586 29.056 136.754 29.216 135.81 29.216ZM145.877 17.648V25.4C145.877 26.04 146.013 26.496 146.285 26.768C146.557 27.024 147.029 27.152 147.701 27.152H149.309V29H147.341C146.125 29 145.213 28.72 144.605 28.16C143.997 27.6 143.693 26.68 143.693 25.4V17.648H141.989V15.848H143.693V12.536H145.877V15.848H149.309V17.648H145.877Z" fill="#29125E"/>
<path d="M118.032 27.224H117.032V28.224H118.032V27.224ZM123.888 27.224H124.888V26.224H123.888V27.224ZM123.888 29V30H124.888V29H123.888ZM115.848 29H114.848V30H115.848V29ZM115.848 12.272V11.272H114.848V12.272H115.848ZM118.032 12.272H119.032V11.272H118.032V12.272ZM118.032 28.224H123.888V26.224H118.032V28.224ZM122.888 27.224V29H124.888V27.224H122.888ZM123.888 28H115.848V30H123.888V28ZM116.848 29V12.272H114.848V29H116.848ZM115.848 13.272H118.032V11.272H115.848V13.272ZM117.032 12.272V27.224H119.032V12.272H117.032ZM125.799 13.28L126.506 12.5729L125.799 13.28ZM125.799 11.168L126.506 11.8751L125.799 11.168ZM127.863 11.168L127.136 11.8546L127.146 11.865L127.156 11.8751L127.863 11.168ZM127.863 13.28L127.156 12.5729L127.146 12.583L127.136 12.5934L127.863 13.28ZM127.911 15.848H128.911V14.848H127.911V15.848ZM127.911 29V30H128.911V29H127.911ZM125.727 29H124.727V30H125.727V29ZM125.727 15.848V14.848H124.727V15.848H125.727ZM126.855 12.712C126.698 12.712 126.602 12.6689 126.506 12.5729L125.092 13.9871C125.572 14.4671 126.181 14.712 126.855 14.712V12.712ZM126.506 12.5729C126.41 12.4769 126.367 12.3811 126.367 12.224H124.367C124.367 12.8989 124.612 13.5071 125.092 13.9871L126.506 12.5729ZM126.367 12.224C126.367 12.0669 126.41 11.9711 126.506 11.8751L125.092 10.4609C124.612 10.9409 124.367 11.5491 124.367 12.224H126.367ZM126.506 11.8751C126.602 11.7791 126.698 11.736 126.855 11.736V9.736C126.181 9.736 125.572 9.98091 125.092 10.4609L126.506 11.8751ZM126.855 11.736C126.983 11.736 127.055 11.7688 127.136 11.8546L128.59 10.4814C128.127 9.99115 127.527 9.736 126.855 9.736V11.736ZM127.156 11.8751C127.252 11.9711 127.295 12.0669 127.295 12.224H129.295C129.295 11.5491 129.05 10.9409 128.57 10.4609L127.156 11.8751ZM127.295 12.224C127.295 12.3811 127.252 12.4769 127.156 12.5729L128.57 13.9871C129.05 13.5071 129.295 12.8989 129.295 12.224H127.295ZM127.136 12.5934C127.055 12.6792 126.983 12.712 126.855 12.712V14.712C127.527 14.712 128.127 14.4568 128.59 13.9666L127.136 12.5934ZM126.911 15.848V29H128.911V15.848H126.911ZM127.911 28H125.727V30H127.911V28ZM126.727 29V15.848H124.727V29H126.727ZM125.727 16.848H127.911V14.848H125.727V16.848ZM133.098 28.712L132.695 29.6273L132.703 29.6307L132.71 29.634L133.098 28.712ZM131.202 27.272L130.399 27.8687L130.407 27.8787L131.202 27.272ZM130.434 25.136V24.136H129.372L129.435 25.1959L130.434 25.136ZM132.69 25.136L133.685 25.0389L133.597 24.136H132.69V25.136ZM133.602 26.744L132.994 27.5384L133.005 27.5467L133.602 26.744ZM137.706 24.152L137.215 25.0236L137.226 25.0295L137.236 25.0351L137.706 24.152ZM135.33 23.312L135.076 24.2793L135.084 24.2813L135.33 23.312ZM132.93 22.544L132.521 23.4568L132.536 23.4632L132.55 23.4692L132.93 22.544ZM131.346 21.368L130.572 22.0012L130.582 22.014L130.593 22.0265L131.346 21.368ZM131.298 17.456L130.484 16.8748L130.484 16.8748L131.298 17.456ZM133.002 16.136L133.4 17.0531L133.409 17.0495L133.417 17.0457L133.002 16.136ZM140.49 19.76V20.76H141.541L141.488 19.7101L140.49 19.76ZM138.306 19.76L137.308 19.8296L137.373 20.76H138.306V19.76ZM137.466 18.104L136.823 18.8702L136.829 18.8752L136.835 18.8801L137.466 18.104ZM133.578 17.984L132.991 17.1741L133.578 17.984ZM133.29 20.384L132.563 21.0706L132.582 21.0914L132.603 21.111L133.29 20.384ZM134.346 21.056L133.956 21.977L133.977 21.9858L133.998 21.9937L134.346 21.056ZM136.122 21.608L135.855 22.5718L135.86 22.5731L136.122 21.608ZM138.426 22.376L138.029 23.2939L138.039 23.2984L138.05 23.3027L138.426 22.376ZM139.938 23.48L139.171 24.1226L139.177 24.1298L139.184 24.1368L139.938 23.48ZM140.61 25.424H141.61V25.414L141.609 25.404L140.61 25.424ZM140.01 27.368L139.188 26.7976L140.01 27.368ZM138.306 28.736L138.712 29.6499L138.721 29.6457L138.306 28.736ZM135.81 28.216C134.913 28.216 134.144 28.0669 133.485 27.79L132.71 29.634C133.651 30.0291 134.69 30.216 135.81 30.216V28.216ZM133.5 27.7967C132.833 27.5029 132.344 27.1208 131.997 26.6653L130.407 27.8787C130.987 28.6392 131.763 29.2171 132.695 29.6273L133.5 27.7967ZM132.004 26.6753C131.66 26.2124 131.469 25.6882 131.432 25.0761L129.435 25.1959C129.495 26.1838 129.815 27.0836 130.399 27.8687L132.004 26.6753ZM130.434 26.136H132.69V24.136H130.434V26.136ZM131.694 25.2331C131.786 26.1772 132.239 26.9612 132.994 27.5384L134.209 25.9496C133.876 25.6948 133.721 25.4068 133.685 25.0389L131.694 25.2331ZM133.005 27.5467C133.781 28.1231 134.736 28.368 135.786 28.368V26.368C135.043 26.368 134.542 26.1968 134.198 25.9413L133.005 27.5467ZM135.786 28.368C136.756 28.368 137.652 28.1537 138.362 27.6096L137.145 26.0224C136.895 26.2143 136.479 26.368 135.786 26.368V28.368ZM138.362 27.6096C139.066 27.0699 139.474 26.3227 139.474 25.424H137.474C137.474 25.6453 137.401 25.8261 137.145 26.0224L138.362 27.6096ZM139.474 25.424C139.474 24.9839 139.374 24.549 139.138 24.1571C138.901 23.7656 138.563 23.4751 138.175 23.2689L137.236 25.0351C137.36 25.1009 137.406 25.1584 137.426 25.1909C137.445 25.223 137.474 25.2881 137.474 25.424H139.474ZM138.196 23.2804C137.567 22.9266 136.672 22.6209 135.576 22.3427L135.084 24.2813C136.131 24.5471 136.82 24.8014 137.215 25.0236L138.196 23.2804ZM135.583 22.3447C134.631 22.095 133.878 21.852 133.309 21.6188L132.55 23.4692C133.23 23.748 134.076 24.017 135.076 24.2793L135.583 22.3447ZM133.338 21.6312C132.865 21.4194 132.453 21.1153 132.098 20.7095L130.593 22.0265C131.134 22.6447 131.779 23.1246 132.521 23.4568L133.338 21.6312ZM132.12 20.7348C131.867 20.4255 131.698 19.9788 131.698 19.304H129.698C129.698 20.3252 129.961 21.2545 130.572 22.0012L132.12 20.7348ZM131.698 19.304C131.698 18.8457 131.829 18.432 132.111 18.0372L130.484 16.8748C129.966 17.6 129.698 18.4183 129.698 19.304H131.698ZM132.111 18.0372C132.39 17.6477 132.803 17.313 133.4 17.0531L132.603 15.2189C131.729 15.599 131.006 16.1443 130.484 16.8748L132.111 18.0372ZM133.417 17.0457C134.003 16.7783 134.697 16.632 135.522 16.632V14.632C134.458 14.632 133.473 14.8217 132.586 15.2263L133.417 17.0457ZM135.522 16.632C136.807 16.632 137.74 16.9541 138.415 17.5087L139.684 15.9633C138.568 15.0459 137.148 14.632 135.522 14.632V16.632ZM138.415 17.5087C139.069 18.0459 139.439 18.7784 139.491 19.8099L141.488 19.7101C141.412 18.1816 140.822 16.8981 139.684 15.9633L138.415 17.5087ZM140.49 18.76H138.306V20.76H140.49V18.76ZM139.303 19.6904C139.237 18.7404 138.834 17.9272 138.096 17.3279L136.835 18.8801C137.121 19.1128 137.278 19.4036 137.308 19.8296L139.303 19.6904ZM138.108 17.3378C137.383 16.7293 136.459 16.48 135.45 16.48V18.48C136.136 18.48 136.557 18.6467 136.823 18.8702L138.108 17.3378ZM135.45 16.48C134.531 16.48 133.678 16.6763 132.991 17.1741L134.164 18.7939C134.405 18.6197 134.8 18.48 135.45 18.48V16.48ZM132.991 17.1741C132.284 17.6864 131.882 18.4198 131.882 19.304H133.882C133.882 19.1002 133.944 18.9536 134.164 18.7939L132.991 17.1741ZM131.882 19.304C131.882 19.9661 132.099 20.5794 132.563 21.0706L134.017 19.6974C133.937 19.6126 133.882 19.5059 133.882 19.304H131.882ZM132.603 21.111C132.989 21.4755 133.445 21.761 133.956 21.977L134.735 20.135C134.414 19.999 134.166 19.8365 133.976 19.657L132.603 21.111ZM133.998 21.9937C134.469 22.168 135.092 22.3607 135.855 22.5718L136.388 20.6442C135.648 20.4393 135.086 20.264 134.693 20.1182L133.998 21.9937ZM135.86 22.5731C136.779 22.8223 137.497 23.0638 138.029 23.2939L138.823 21.4581C138.17 21.1762 137.353 20.9057 136.383 20.6429L135.86 22.5731ZM138.05 23.3027C138.488 23.4805 138.859 23.75 139.171 24.1226L140.704 22.8374C140.184 22.2179 139.547 21.7515 138.801 21.4493L138.05 23.3027ZM139.184 24.1368C139.43 24.4198 139.597 24.8258 139.61 25.444L141.609 25.404C141.59 24.4222 141.309 23.5322 140.692 22.8232L139.184 24.1368ZM139.61 25.424C139.61 25.9459 139.469 26.3938 139.188 26.7976L140.831 27.9384C141.351 27.1902 141.61 26.3421 141.61 25.424H139.61ZM139.188 26.7976C138.906 27.2047 138.488 27.5533 137.89 27.8263L138.721 29.6457C139.595 29.2467 140.314 28.6833 140.831 27.9384L139.188 26.7976ZM137.899 27.8222C137.33 28.0753 136.641 28.216 135.81 28.216V30.216C136.866 30.216 137.841 30.0367 138.712 29.6498L137.899 27.8222ZM145.877 17.648V16.648H144.877V17.648H145.877ZM146.285 26.768L145.578 27.4751L145.588 27.4858L145.599 27.4962L146.285 26.768ZM149.309 27.152H150.309V26.152H149.309V27.152ZM149.309 29V30H150.309V29H149.309ZM143.693 17.648H144.693V16.648H143.693V17.648ZM141.989 17.648H140.989V18.648H141.989V17.648ZM141.989 15.848V14.848H140.989V15.848H141.989ZM143.693 15.848V16.848H144.693V15.848H143.693ZM143.693 12.536V11.536H142.693V12.536H143.693ZM145.877 12.536H146.877V11.536H145.877V12.536ZM145.877 15.848H144.877V16.848H145.877V15.848ZM149.309 15.848H150.309V14.848H149.309V15.848ZM149.309 17.648V18.648H150.309V17.648H149.309ZM144.877 17.648V25.4H146.877V17.648H144.877ZM144.877 25.4C144.877 26.1386 145.026 26.9238 145.578 27.4751L146.992 26.0609C146.998 26.067 146.969 26.0423 146.937 25.9362C146.904 25.8266 146.877 25.6543 146.877 25.4H144.877ZM145.599 27.4962C146.158 28.0216 146.958 28.152 147.701 28.152V26.152C147.423 26.152 147.23 26.1249 147.104 26.0909C146.98 26.057 146.955 26.0258 146.97 26.0398L145.599 27.4962ZM147.701 28.152H149.309V26.152H147.701V28.152ZM148.309 27.152V29H150.309V27.152H148.309ZM149.309 28H147.341V30H149.309V28ZM147.341 28C146.259 28 145.635 27.7493 145.282 27.4245L143.927 28.8955C144.791 29.6907 145.99 30 147.341 30V28ZM145.282 27.4245C144.97 27.1365 144.693 26.552 144.693 25.4H142.693C142.693 26.808 143.024 28.0635 143.927 28.8955L145.282 27.4245ZM144.693 25.4V17.648H142.693V25.4H144.693ZM143.693 16.648H141.989V18.648H143.693V16.648ZM142.989 17.648V15.848H140.989V17.648H142.989ZM141.989 16.848H143.693V14.848H141.989V16.848ZM144.693 15.848V12.536H142.693V15.848H144.693ZM143.693 13.536H145.877V11.536H143.693V13.536ZM144.877 12.536V15.848H146.877V12.536H144.877ZM145.877 16.848H149.309V14.848H145.877V16.848ZM148.309 15.848V17.648H150.309V15.848H148.309ZM149.309 16.648H145.877V18.648H149.309V16.648Z" fill="#29125E"/>
<circle cx="111.5" cy="27.5" r="2.5" fill="#00A6CB"/>
<rect width="42" height="42" rx="8" fill="#00A6CB"/>
<g filter="url(#filter0_d_19_415)">
<path d="M36.4576 12.5662C37.3225 11.4901 37.1514 9.91642 36.0752 9.05142C34.999 8.18642 33.4254 8.35761 32.5604 9.43378L36.4576 12.5662ZM19.6234 33.51L36.4576 12.5662L32.5604 9.43378L15.7263 30.3776L19.6234 33.51Z" fill="white"/>
<path d="M9.56174 19.0478C8.48358 18.1853 6.91035 18.3601 6.04783 19.4382C5.1853 20.5164 5.36011 22.0896 6.43826 22.9521L9.56174 19.0478ZM6.43826 22.9521L16.4383 30.9521L19.5617 27.0478L9.56174 19.0478L6.43826 22.9521Z" fill="white"/>
</g>
<defs>
<filter id="filter0_d_19_415" x="3.49988" y="6.49991" width="35.5092" height="29.0101" filterUnits="userSpaceOnUse" color-interpolation-filters="sRGB">
<feFlood flood-opacity="0" result="BackgroundImageFix"/>
<feColorMatrix in="SourceAlpha" type="matrix" values="0 0 0 0 0 0 0 0 0 0 0 0 0 0 0 0 0 0 127 0" result="hardAlpha"/>
<feOffset/>
<feGaussianBlur stdDeviation="1"/>
<feComposite in2="hardAlpha" operator="out"/>
<feColorMatrix type="matrix" values="0 0 0 0 0 0 0 0 0 0 0 0 0 0 0 0 0 0 0.3 0"/>
<feBlend mode="normal" in2="BackgroundImageFix" result="effect1_dropShadow_19_415"/>
<feBlend mode="normal" in="SourceGraphic" in2="effect1_dropShadow_19_415" result="shape"/>
</filter>
</defs>
</svg>
