<svg width="32" height="32" viewBox="0 0 32 32" fill="none" xmlns="http://www.w3.org/2000/svg">
<path d="M18.2175 28.1212C18.0417 28.1211 17.8696 28.0716 17.7206 27.9783C17.5716 27.8851 17.4519 27.7518 17.375 27.5937L12.9688 18.5356L3.91064 14.13C3.74746 14.0504 3.61089 13.9252 3.5175 13.7696C3.42411 13.6139 3.37792 13.4345 3.38453 13.2531C3.39115 13.0717 3.4503 12.8961 3.55478 12.7477C3.65927 12.5992 3.8046 12.4843 3.97314 12.4169L27.2175 3.06749C27.3881 2.99874 27.5751 2.98167 27.7553 3.01841C27.9355 3.05515 28.1009 3.14407 28.2309 3.2741C28.3609 3.40413 28.4498 3.56954 28.4866 3.74972C28.5233 3.92991 28.5063 4.11693 28.4375 4.28749L19.0875 27.5337C19.0197 27.7021 18.9045 27.8472 18.7558 27.9514C18.6072 28.0556 18.4314 28.1144 18.25 28.1206L18.2175 28.1212ZM6.63126 13.3712L14.08 16.9962C14.2688 17.088 14.4213 17.2406 14.5131 17.4294L18.1381 24.8781L25.875 5.62499L6.63126 13.3712Z" fill="white"/>
<path d="M13.67 18.7718C13.4846 18.7718 13.3033 18.7168 13.1492 18.6137C12.995 18.5107 12.8749 18.3642 12.804 18.1929C12.7331 18.0215 12.7146 17.833 12.7508 17.6512C12.787 17.4693 12.8764 17.3023 13.0075 17.1712L26.9044 3.27433C26.9915 3.18729 27.0949 3.11825 27.2086 3.07116C27.3224 3.02407 27.4443 2.99985 27.5674 2.99988C27.6906 2.99991 27.8125 3.02419 27.9262 3.07133C28.04 3.11848 28.1433 3.18756 28.2303 3.27464C28.3174 3.36173 28.3864 3.4651 28.4335 3.57887C28.4806 3.69263 28.5048 3.81455 28.5048 3.93768C28.5048 4.0608 28.4805 4.18272 28.4333 4.29646C28.3862 4.4102 28.3171 4.51354 28.23 4.60058L14.3332 18.5C14.1568 18.6748 13.9184 18.7726 13.67 18.7718Z" fill="white"/>
</svg>
