<svg width="102" height="37" viewBox="0 0 102 37" fill="none" xmlns="http://www.w3.org/2000/svg">
<path d="M12.144 10.272V12.048H7.584V27H5.4V12.048H0.816V10.272H12.144ZM20.0884 27.216C18.8564 27.216 17.7364 26.936 16.7284 26.376C15.7364 25.816 14.9524 25.024 14.3764 24C13.8164 22.96 13.5364 21.76 13.5364 20.4C13.5364 19.056 13.8244 17.872 14.4004 16.848C14.9924 15.808 15.7924 15.016 16.8004 14.472C17.8084 13.912 18.9364 13.632 20.1844 13.632C21.4324 13.632 22.5604 13.912 23.5684 14.472C24.5764 15.016 25.3684 15.8 25.9444 16.824C26.5364 17.848 26.8324 19.04 26.8324 20.4C26.8324 21.76 26.5284 22.96 25.9204 24C25.3284 25.024 24.5204 25.816 23.4964 26.376C22.4724 26.936 21.3364 27.216 20.0884 27.216ZM20.0884 25.296C20.8724 25.296 21.6084 25.112 22.2964 24.744C22.9844 24.376 23.5364 23.824 23.9524 23.088C24.3844 22.352 24.6004 21.456 24.6004 20.4C24.6004 19.344 24.3924 18.448 23.9764 17.712C23.5604 16.976 23.0164 16.432 22.3444 16.08C21.6724 15.712 20.9444 15.528 20.1604 15.528C19.3604 15.528 18.6244 15.712 17.9524 16.08C17.2964 16.432 16.7684 16.976 16.3684 17.712C15.9684 18.448 15.7684 19.344 15.7684 20.4C15.7684 21.472 15.9604 22.376 16.3444 23.112C16.7444 23.848 17.2724 24.4 17.9284 24.768C18.5844 25.12 19.3044 25.296 20.0884 25.296ZM34.4319 10.272C36.2559 10.272 37.8319 10.616 39.1599 11.304C40.5039 11.976 41.5279 12.944 42.2319 14.208C42.9519 15.472 43.3119 16.96 43.3119 18.672C43.3119 20.384 42.9519 21.872 42.2319 23.136C41.5279 24.384 40.5039 25.344 39.1599 26.016C37.8319 26.672 36.2559 27 34.4319 27H29.2239V10.272H34.4319ZM34.4319 25.2C36.5919 25.2 38.2399 24.632 39.3759 23.496C40.5119 22.344 41.0799 20.736 41.0799 18.672C41.0799 16.592 40.5039 14.968 39.3519 13.8C38.2159 12.632 36.5759 12.048 34.4319 12.048H31.4079V25.2H34.4319ZM51.4487 27.216C50.2167 27.216 49.0967 26.936 48.0887 26.376C47.0967 25.816 46.3127 25.024 45.7367 24C45.1767 22.96 44.8967 21.76 44.8967 20.4C44.8967 19.056 45.1847 17.872 45.7607 16.848C46.3527 15.808 47.1527 15.016 48.1607 14.472C49.1687 13.912 50.2967 13.632 51.5447 13.632C52.7927 13.632 53.9207 13.912 54.9287 14.472C55.9367 15.016 56.7287 15.8 57.3047 16.824C57.8967 17.848 58.1927 19.04 58.1927 20.4C58.1927 21.76 57.8887 22.96 57.2807 24C56.6887 25.024 55.8807 25.816 54.8567 26.376C53.8327 26.936 52.6967 27.216 51.4487 27.216ZM51.4487 25.296C52.2327 25.296 52.9687 25.112 53.6567 24.744C54.3447 24.376 54.8967 23.824 55.3127 23.088C55.7447 22.352 55.9607 21.456 55.9607 20.4C55.9607 19.344 55.7527 18.448 55.3367 17.712C54.9207 16.976 54.3767 16.432 53.7047 16.08C53.0327 15.712 52.3047 15.528 51.5207 15.528C50.7207 15.528 49.9847 15.712 49.3127 16.08C48.6567 16.432 48.1287 16.976 47.7287 17.712C47.3287 18.448 47.1287 19.344 47.1287 20.4C47.1287 21.472 47.3207 22.376 47.7047 23.112C48.1047 23.848 48.6327 24.4 49.2887 24.768C49.9447 25.12 50.6647 25.296 51.4487 25.296Z" fill="#29125E"/>
<path d="M12.144 10.272H13.144V9.272H12.144V10.272ZM12.144 12.048V13.048H13.144V12.048H12.144ZM7.584 12.048V11.048H6.584V12.048H7.584ZM7.584 27V28H8.584V27H7.584ZM5.4 27H4.4V28H5.4V27ZM5.4 12.048H6.4V11.048H5.4V12.048ZM0.816 12.048H-0.184V13.048H0.816V12.048ZM0.816 10.272V9.272H-0.184V10.272H0.816ZM11.144 10.272V12.048H13.144V10.272H11.144ZM12.144 11.048H7.584V13.048H12.144V11.048ZM6.584 12.048V27H8.584V12.048H6.584ZM7.584 26H5.4V28H7.584V26ZM6.4 27V12.048H4.4V27H6.4ZM5.4 11.048H0.816V13.048H5.4V11.048ZM1.816 12.048V10.272H-0.184V12.048H1.816ZM0.816 11.272H12.144V9.272H0.816V11.272ZM16.7284 26.376L16.2368 27.2468L16.2427 27.2502L16.7284 26.376ZM14.3764 24L13.4959 24.4741L13.5003 24.4822L13.5048 24.4903L14.3764 24ZM14.4004 16.848L13.5313 16.3533L13.5288 16.3577L14.4004 16.848ZM16.8004 14.472L17.2753 15.3521L17.286 15.3462L16.8004 14.472ZM23.5684 14.472L23.0827 15.3462L23.0934 15.352L23.5684 14.472ZM25.9444 16.824L25.0727 17.3143L25.0786 17.3245L25.9444 16.824ZM25.9204 24L25.0571 23.4953L25.0546 23.4995L25.9204 24ZM23.4964 26.376L23.9762 27.2534L23.4964 26.376ZM23.9524 23.088L23.09 22.5818L23.0858 22.5888L23.0818 22.5959L23.9524 23.088ZM22.3444 16.08L21.8641 16.9571L21.8722 16.9615L21.8804 16.9658L22.3444 16.08ZM17.9524 16.08L18.4252 16.9612L18.4327 16.9571L17.9524 16.08ZM16.3684 17.712L17.247 18.1895L16.3684 17.712ZM16.3444 23.112L15.4578 23.5746L15.4617 23.5821L15.4658 23.5895L16.3444 23.112ZM17.9284 24.768L17.4391 25.6401L17.4473 25.6447L17.4556 25.6492L17.9284 24.768ZM20.0884 26.216C19.0143 26.216 18.0633 25.9737 17.214 25.5018L16.2427 27.2502C17.4094 27.8983 18.6984 28.216 20.0884 28.216V26.216ZM17.22 25.5052C16.3922 25.0379 15.7374 24.3798 15.248 23.5097L13.5048 24.4903C14.1674 25.6682 15.0806 26.5941 16.2368 27.2468L17.22 25.5052ZM15.2568 23.5259C14.7865 22.6523 14.5364 21.6198 14.5364 20.4H12.5364C12.5364 21.9002 12.8463 23.2677 13.4959 24.4741L15.2568 23.5259ZM14.5364 20.4C14.5364 19.2027 14.7916 18.1922 15.272 17.3383L13.5288 16.3577C12.8571 17.5518 12.5364 18.9093 12.5364 20.4H14.5364ZM15.2694 17.3427C15.7731 16.4579 16.4398 15.8029 17.2753 15.352L16.3254 13.592C15.145 14.229 14.2116 15.1581 13.5313 16.3533L15.2694 17.3427ZM17.286 15.3462C18.1334 14.8754 19.0919 14.632 20.1844 14.632V12.632C18.7808 12.632 17.4834 12.9486 16.3147 13.5978L17.286 15.3462ZM20.1844 14.632C21.2768 14.632 22.2354 14.8754 23.0827 15.3462L24.054 13.5978C22.8854 12.9486 21.5879 12.632 20.1844 12.632V14.632ZM23.0934 15.352C23.9306 15.8038 24.587 16.4506 25.0728 17.3143L26.816 16.3337C26.1498 15.1494 25.2222 14.2282 24.0433 13.592L23.0934 15.352ZM25.0786 17.3245C25.5702 18.1748 25.8324 19.189 25.8324 20.4H27.8324C27.8324 18.891 27.5025 17.5212 26.8101 16.3235L25.0786 17.3245ZM25.8324 20.4C25.8324 21.606 25.5645 22.6274 25.0571 23.4953L26.7837 24.5047C27.4923 23.2926 27.8324 21.914 27.8324 20.4H25.8324ZM25.0546 23.4995C24.553 24.3671 23.8776 25.0278 23.0166 25.4986L23.9762 27.2534C25.1632 26.6042 26.1037 25.6809 26.7861 24.5005L25.0546 23.4995ZM23.0166 25.4986C22.1499 25.9726 21.1807 26.216 20.0884 26.216V28.216C21.4921 28.216 22.7949 27.8994 23.9762 27.2534L23.0166 25.4986ZM20.0884 26.296C21.0361 26.296 21.9342 26.0718 22.768 25.6258L21.8247 23.8622C21.2826 24.1522 20.7087 24.296 20.0884 24.296V26.296ZM22.768 25.6258C23.6372 25.1609 24.3217 24.4668 24.8229 23.5801L23.0818 22.5959C22.751 23.1812 22.3315 23.5911 21.8247 23.8622L22.768 25.6258ZM24.8148 23.5942C25.356 22.6722 25.6004 21.592 25.6004 20.4H23.6004C23.6004 21.32 23.4128 22.0318 23.09 22.5818L24.8148 23.5942ZM25.6004 20.4C25.6004 19.2139 25.3664 18.1391 24.8469 17.2199L23.1058 18.2041C23.4183 18.7569 23.6004 19.4741 23.6004 20.4H25.6004ZM24.8469 17.2199C24.3474 16.3361 23.6701 15.6456 22.8084 15.1942L21.8804 16.9658C22.3626 17.2184 22.7734 17.6159 23.1058 18.2041L24.8469 17.2199ZM22.8247 15.2029C22.0019 14.7523 21.1082 14.528 20.1604 14.528V16.528C20.7806 16.528 21.3428 16.6717 21.8641 16.9571L22.8247 15.2029ZM20.1604 14.528C19.2002 14.528 18.2979 14.7507 17.4721 15.2029L18.4327 16.9571C18.9508 16.6733 19.5206 16.528 20.1604 16.528V14.528ZM17.4796 15.1988C16.6309 15.6542 15.9708 16.3494 15.4898 17.2345L17.247 18.1895C17.566 17.6026 17.9618 17.2098 18.4252 16.9612L17.4796 15.1988ZM15.4898 17.2345C14.992 18.1504 14.7684 19.2198 14.7684 20.4H16.7684C16.7684 19.4682 16.9448 18.7456 17.247 18.1895L15.4898 17.2345ZM14.7684 20.4C14.7684 21.5876 14.9808 22.6602 15.4578 23.5746L17.231 22.6494C16.94 22.0918 16.7684 21.3564 16.7684 20.4H14.7684ZM15.4658 23.5895C15.9452 24.4717 16.6005 25.1697 17.4391 25.6401L18.4176 23.8959C17.9443 23.6303 17.5436 23.2243 17.223 22.6345L15.4658 23.5895ZM17.4556 25.6492C18.2647 26.0833 19.1484 26.296 20.0884 26.296V24.296C19.4603 24.296 18.904 24.1567 18.4012 23.8868L17.4556 25.6492ZM39.1599 11.304L38.6999 12.1919L38.7063 12.1952L38.7127 12.1984L39.1599 11.304ZM42.2319 14.208L41.3583 14.6946L41.363 14.703L42.2319 14.208ZM42.2319 23.136L41.363 22.641L41.361 22.6447L42.2319 23.136ZM39.1599 26.016L39.6028 26.9126L39.6072 26.9104L39.1599 26.016ZM29.2239 27H28.2239V28H29.2239V27ZM29.2239 10.272V9.272H28.2239V10.272H29.2239ZM39.3759 23.496L40.0831 24.2031L40.088 24.1981L39.3759 23.496ZM39.3519 13.8L38.6351 14.4972L38.64 14.5022L39.3519 13.8ZM31.4079 12.048V11.048H30.4079V12.048H31.4079ZM31.4079 25.2H30.4079V26.2H31.4079V25.2ZM34.4319 11.272C36.1305 11.272 37.542 11.592 38.6999 12.1919L39.6199 10.4161C38.1219 9.63998 36.3813 9.272 34.4319 9.272V11.272ZM38.7127 12.1984C39.8842 12.7841 40.7561 13.6134 41.3583 14.6946L43.1056 13.7214C42.2998 12.2746 41.1237 11.1679 39.6072 10.4096L38.7127 12.1984ZM41.363 14.703C41.983 15.7914 42.3119 17.1027 42.3119 18.672H44.3119C44.3119 16.8173 43.9209 15.1526 43.1009 13.713L41.363 14.703ZM42.3119 18.672C42.3119 20.2413 41.983 21.5526 41.363 22.641L43.1009 23.631C43.9209 22.1914 44.3119 20.5267 44.3119 18.672H42.3119ZM41.361 22.6447C40.7598 23.7104 39.8876 24.5341 38.7127 25.1216L39.6072 26.9104C41.1203 26.1539 42.2961 25.0576 43.1029 23.6273L41.361 22.6447ZM38.7171 25.1194C37.555 25.6935 36.1372 26 34.4319 26V28C36.3747 28 38.1089 27.6505 39.6028 26.9126L38.7171 25.1194ZM34.4319 26H29.2239V28H34.4319V26ZM30.2239 27V10.272H28.2239V27H30.2239ZM29.2239 11.272H34.4319V9.272H29.2239V11.272ZM34.4319 26.2C36.763 26.2 38.7021 25.5841 40.083 24.2031L38.6688 22.7889C37.7778 23.6799 36.4208 24.2 34.4319 24.2V26.2ZM40.088 24.1981C41.4557 22.8112 42.0799 20.9229 42.0799 18.672H40.0799C40.0799 20.5491 39.5682 21.8768 38.6639 22.7939L40.088 24.1981ZM42.0799 18.672C42.0799 16.403 41.4465 14.4996 40.0639 13.0978L38.64 14.5022C39.5613 15.4364 40.0799 16.781 40.0799 18.672H42.0799ZM40.0688 13.1028C38.6904 11.6856 36.7571 11.048 34.4319 11.048V13.048C36.3948 13.048 37.7414 13.5784 38.6351 14.4972L40.0688 13.1028ZM34.4319 11.048H31.4079V13.048H34.4319V11.048ZM30.4079 12.048V25.2H32.4079V12.048H30.4079ZM31.4079 26.2H34.4319V24.2H31.4079V26.2ZM48.0887 26.376L47.5971 27.2468L47.603 27.2502L48.0887 26.376ZM45.7367 24L44.8562 24.4741L44.8606 24.4822L44.8651 24.4903L45.7367 24ZM45.7607 16.848L44.8916 16.3533L44.8891 16.3577L45.7607 16.848ZM48.1607 14.472L48.6357 15.3521L48.6463 15.3462L48.1607 14.472ZM54.9287 14.472L54.443 15.3462L54.4538 15.352L54.9287 14.472ZM57.3047 16.824L56.4331 17.3143L56.439 17.3245L57.3047 16.824ZM57.2807 24L56.4174 23.4953L56.415 23.4995L57.2807 24ZM54.8567 26.376L55.3365 27.2534L54.8567 26.376ZM55.3127 23.088L54.4503 22.5818L54.4461 22.5888L54.4421 22.5959L55.3127 23.088ZM53.7047 16.08L53.2244 16.9571L53.2325 16.9615L53.2407 16.9658L53.7047 16.08ZM49.3127 16.08L49.7855 16.9612L49.793 16.9571L49.3127 16.08ZM47.7287 17.712L48.6073 18.1895L47.7287 17.712ZM47.7047 23.112L46.8181 23.5746L46.822 23.5821L46.8261 23.5895L47.7047 23.112ZM49.2887 24.768L48.7994 25.6401L48.8076 25.6447L48.8159 25.6492L49.2887 24.768ZM51.4487 26.216C50.3746 26.216 49.4236 25.9737 48.5743 25.5018L47.603 27.2502C48.7698 27.8983 50.0587 28.216 51.4487 28.216V26.216ZM48.5803 25.5052C47.7525 25.0379 47.0977 24.3798 46.6083 23.5097L44.8651 24.4903C45.5277 25.6682 46.4409 26.5941 47.5971 27.2468L48.5803 25.5052ZM46.6172 23.5259C46.1468 22.6523 45.8967 21.6198 45.8967 20.4H43.8967C43.8967 21.9002 44.2066 23.2677 44.8562 24.4741L46.6172 23.5259ZM45.8967 20.4C45.8967 19.2027 46.1519 18.1922 46.6323 17.3383L44.8891 16.3577C44.2174 17.5518 43.8967 18.9093 43.8967 20.4H45.8967ZM46.6298 17.3427C47.1334 16.4579 47.8001 15.8029 48.6356 15.352L47.6858 13.592C46.5053 14.229 45.572 15.1581 44.8916 16.3533L46.6298 17.3427ZM48.6463 15.3462C49.4937 14.8754 50.4523 14.632 51.5447 14.632V12.632C50.1411 12.632 48.8437 12.9486 47.675 13.5978L48.6463 15.3462ZM51.5447 14.632C52.6371 14.632 53.5957 14.8754 54.443 15.3462L55.4143 13.5978C54.2457 12.9486 52.9482 12.632 51.5447 12.632V14.632ZM54.4538 15.352C55.2909 15.8038 55.9473 16.4506 56.4331 17.3143L58.1763 16.3337C57.5101 15.1494 56.5825 14.2282 55.4036 13.592L54.4538 15.352ZM56.439 17.3245C56.9305 18.1748 57.1927 19.189 57.1927 20.4H59.1927C59.1927 18.891 58.8628 17.5212 58.1704 16.3235L56.439 17.3245ZM57.1927 20.4C57.1927 21.606 56.9248 22.6274 56.4174 23.4953L58.144 24.5047C58.8526 23.2926 59.1927 21.914 59.1927 20.4H57.1927ZM56.415 23.4995C55.9133 24.3671 55.2379 25.0278 54.3769 25.4986L55.3365 27.2534C56.5235 26.6042 57.464 25.6809 58.1464 24.5005L56.415 23.4995ZM54.3769 25.4986C53.5102 25.9726 52.541 26.216 51.4487 26.216V28.216C52.8524 28.216 54.1552 27.8994 55.3365 27.2534L54.3769 25.4986ZM51.4487 26.296C52.3964 26.296 53.2945 26.0718 54.1283 25.6258L53.185 23.8622C52.6429 24.1522 52.069 24.296 51.4487 24.296V26.296ZM54.1283 25.6258C54.9975 25.1609 55.682 24.4668 56.1833 23.5801L54.4421 22.5959C54.1113 23.1812 53.6918 23.5911 53.185 23.8622L54.1283 25.6258ZM56.1751 23.5942C56.7163 22.6722 56.9607 21.592 56.9607 20.4H54.9607C54.9607 21.32 54.7731 22.0318 54.4503 22.5818L56.1751 23.5942ZM56.9607 20.4C56.9607 19.2139 56.7268 18.1391 56.2073 17.2199L54.4661 18.2041C54.7786 18.7569 54.9607 19.4741 54.9607 20.4H56.9607ZM56.2073 17.2199C55.7077 16.3361 55.0304 15.6456 54.1687 15.1942L53.2407 16.9658C53.7229 17.2184 54.1337 17.6159 54.4661 18.2041L56.2073 17.2199ZM54.185 15.2029C53.3622 14.7523 52.4685 14.528 51.5207 14.528V16.528C52.1409 16.528 52.7032 16.6717 53.2244 16.9571L54.185 15.2029ZM51.5207 14.528C50.5605 14.528 49.6582 14.7507 48.8324 15.2029L49.793 16.9571C50.3112 16.6733 50.8809 16.528 51.5207 16.528V14.528ZM48.8399 15.1988C47.9912 15.6542 47.3311 16.3494 46.8501 17.2345L48.6073 18.1895C48.9263 17.6026 49.3222 17.2098 49.7855 16.9612L48.8399 15.1988ZM46.8501 17.2345C46.3523 18.1504 46.1287 19.2198 46.1287 20.4H48.1287C48.1287 19.4682 48.3051 18.7456 48.6073 18.1895L46.8501 17.2345ZM46.1287 20.4C46.1287 21.5876 46.3411 22.6602 46.8181 23.5746L48.5913 22.6494C48.3003 22.0918 48.1287 21.3564 48.1287 20.4H46.1287ZM46.8261 23.5895C47.3055 24.4717 47.9608 25.1697 48.7994 25.6401L49.7779 23.8959C49.3046 23.6303 48.9039 23.2243 48.5833 22.6345L46.8261 23.5895ZM48.8159 25.6492C49.625 26.0833 50.5087 26.296 51.4487 26.296V24.296C50.8206 24.296 50.2643 24.1567 49.7615 23.8868L48.8159 25.6492Z" fill="#29125E"/>
<path d="M69.032 24.224H74.888V26H66.848V9.272H69.032V24.224ZM77.8554 10.712C77.4394 10.712 77.0874 10.568 76.7994 10.28C76.5114 9.992 76.3674 9.64 76.3674 9.224C76.3674 8.808 76.5114 8.456 76.7994 8.168C77.0874 7.88 77.4394 7.736 77.8554 7.736C78.2554 7.736 78.5914 7.88 78.8634 8.168C79.1514 8.456 79.2954 8.808 79.2954 9.224C79.2954 9.64 79.1514 9.992 78.8634 10.28C78.5914 10.568 78.2554 10.712 77.8554 10.712ZM78.9114 12.848V26H76.7274V12.848H78.9114ZM86.8096 26.216C85.8016 26.216 84.8976 26.048 84.0976 25.712C83.2976 25.36 82.6656 24.88 82.2016 24.272C81.7376 23.648 81.4816 22.936 81.4336 22.136H83.6896C83.7536 22.792 84.0576 23.328 84.6016 23.744C85.1616 24.16 85.8896 24.368 86.7856 24.368C87.6176 24.368 88.2736 24.184 88.7536 23.816C89.2336 23.448 89.4736 22.984 89.4736 22.424C89.4736 21.848 89.2176 21.424 88.7056 21.152C88.1936 20.864 87.4016 20.584 86.3296 20.312C85.3536 20.056 84.5536 19.8 83.9296 19.544C83.3216 19.272 82.7936 18.88 82.3456 18.368C81.9136 17.84 81.6976 17.152 81.6976 16.304C81.6976 15.632 81.8976 15.016 82.2976 14.456C82.6976 13.896 83.2656 13.456 84.0016 13.136C84.7376 12.8 85.5776 12.632 86.5216 12.632C87.9776 12.632 89.1536 13 90.0496 13.736C90.9456 14.472 91.4256 15.48 91.4896 16.76H89.3056C89.2576 16.072 88.9776 15.52 88.4656 15.104C87.9696 14.688 87.2976 14.48 86.4496 14.48C85.6656 14.48 85.0416 14.648 84.5776 14.984C84.1136 15.32 83.8816 15.76 83.8816 16.304C83.8816 16.736 84.0176 17.096 84.2896 17.384C84.5776 17.656 84.9296 17.88 85.3456 18.056C85.7776 18.216 86.3696 18.4 87.1216 18.608C88.0656 18.864 88.8336 19.12 89.4256 19.376C90.0176 19.616 90.5216 19.984 90.9376 20.48C91.3696 20.976 91.5936 21.624 91.6096 22.424C91.6096 23.144 91.4096 23.792 91.0096 24.368C90.6096 24.944 90.0416 25.4 89.3056 25.736C88.5856 26.056 87.7536 26.216 86.8096 26.216ZM96.8767 14.648V22.4C96.8767 23.04 97.0127 23.496 97.2847 23.768C97.5567 24.024 98.0287 24.152 98.7007 24.152H100.309V26H98.3407C97.1247 26 96.2127 25.72 95.6047 25.16C94.9967 24.6 94.6927 23.68 94.6927 22.4V14.648H92.9887V12.848H94.6927V9.536H96.8767V12.848H100.309V14.648H96.8767Z" fill="#29125E"/>
<path d="M69.032 24.224H68.032V25.224H69.032V24.224ZM74.888 24.224H75.888V23.224H74.888V24.224ZM74.888 26V27H75.888V26H74.888ZM66.848 26H65.848V27H66.848V26ZM66.848 9.272V8.272H65.848V9.272H66.848ZM69.032 9.272H70.032V8.272H69.032V9.272ZM69.032 25.224H74.888V23.224H69.032V25.224ZM73.888 24.224V26H75.888V24.224H73.888ZM74.888 25H66.848V27H74.888V25ZM67.848 26V9.272H65.848V26H67.848ZM66.848 10.272H69.032V8.272H66.848V10.272ZM68.032 9.272V24.224H70.032V9.272H68.032ZM76.7994 10.28L77.5065 9.57289L76.7994 10.28ZM76.7994 8.168L77.5065 8.87511L76.7994 8.168ZM78.8634 8.168L78.1364 8.85462L78.1462 8.86501L78.1563 8.87511L78.8634 8.168ZM78.8634 10.28L78.1563 9.57289L78.1462 9.58299L78.1364 9.59338L78.8634 10.28ZM78.9114 12.848H79.9114V11.848H78.9114V12.848ZM78.9114 26V27H79.9114V26H78.9114ZM76.7274 26H75.7274V27H76.7274V26ZM76.7274 12.848V11.848H75.7274V12.848H76.7274ZM77.8554 9.712C77.6982 9.712 77.6025 9.66891 77.5065 9.57289L76.0923 10.9871C76.5723 11.4671 77.1805 11.712 77.8554 11.712V9.712ZM77.5065 9.57289C77.4105 9.47688 77.3674 9.38114 77.3674 9.224H75.3674C75.3674 9.89886 75.6123 10.5071 76.0923 10.9871L77.5065 9.57289ZM77.3674 9.224C77.3674 9.06686 77.4105 8.97112 77.5065 8.87511L76.0923 7.46089C75.6123 7.94088 75.3674 8.54914 75.3674 9.224H77.3674ZM77.5065 8.87511C77.6025 8.77909 77.6982 8.736 77.8554 8.736V6.736C77.1805 6.736 76.5723 6.98091 76.0923 7.46089L77.5065 8.87511ZM77.8554 8.736C77.9833 8.736 78.0553 8.76884 78.1364 8.85462L79.5904 7.48138C79.1274 6.99115 78.5275 6.736 77.8554 6.736V8.736ZM78.1563 8.87511C78.2523 8.97112 78.2954 9.06686 78.2954 9.224H80.2954C80.2954 8.54914 80.0505 7.94088 79.5705 7.46089L78.1563 8.87511ZM78.2954 9.224C78.2954 9.38114 78.2523 9.47688 78.1563 9.57289L79.5705 10.9871C80.0505 10.5071 80.2954 9.89886 80.2954 9.224H78.2954ZM78.1364 9.59338C78.0553 9.67915 77.9833 9.712 77.8554 9.712V11.712C78.5275 11.712 79.1274 11.4568 79.5904 10.9666L78.1364 9.59338ZM77.9114 12.848V26H79.9114V12.848H77.9114ZM78.9114 25H76.7274V27H78.9114V25ZM77.7274 26V12.848H75.7274V26H77.7274ZM76.7274 13.848H78.9114V11.848H76.7274V13.848ZM84.0976 25.712L83.6949 26.6273L83.7026 26.6307L83.7104 26.634L84.0976 25.712ZM82.2016 24.272L81.3991 24.8687L81.4067 24.8787L82.2016 24.272ZM81.4336 22.136V21.136H80.3718L80.4354 22.1959L81.4336 22.136ZM83.6896 22.136L84.6849 22.0389L84.5968 21.136H83.6896V22.136ZM84.6016 23.744L83.9941 24.5384L84.0053 24.5467L84.6016 23.744ZM88.7056 21.152L88.2154 22.0236L88.2258 22.0295L88.2365 22.0351L88.7056 21.152ZM86.3296 20.312L86.0759 21.2793L86.0837 21.2813L86.3296 20.312ZM83.9296 19.544L83.5213 20.4568L83.5356 20.4632L83.5501 20.4692L83.9296 19.544ZM82.3456 18.368L81.5717 19.0012L81.5821 19.014L81.593 19.0265L82.3456 18.368ZM82.2976 14.456L81.4839 13.8748L81.4839 13.8748L82.2976 14.456ZM84.0016 13.136L84.4004 14.0531L84.4087 14.0495L84.4169 14.0457L84.0016 13.136ZM91.4896 16.76V17.76H92.5409L92.4884 16.7101L91.4896 16.76ZM89.3056 16.76L88.3081 16.8296L88.373 17.76H89.3056V16.76ZM88.4656 15.104L87.823 15.8702L87.829 15.8752L87.835 15.8801L88.4656 15.104ZM84.5776 14.984L83.9911 14.1741L84.5776 14.984ZM84.2896 17.384L83.5626 18.0706L83.5822 18.0914L83.603 18.111L84.2896 17.384ZM85.3456 18.056L84.956 18.977L84.977 18.9858L84.9983 18.9937L85.3456 18.056ZM87.1216 18.608L86.855 19.5718L86.8599 19.5731L87.1216 18.608ZM89.4256 19.376L89.0287 20.2939L89.0393 20.2984L89.0499 20.3027L89.4256 19.376ZM90.9376 20.48L90.1714 21.1226L90.1774 21.1298L90.1835 21.1368L90.9376 20.48ZM91.6096 22.424H92.6096V22.414L92.6094 22.404L91.6096 22.424ZM91.0096 24.368L90.1883 23.7976L91.0096 24.368ZM89.3056 25.736L89.7118 26.6499L89.7209 26.6457L89.3056 25.736ZM86.8096 25.216C85.9133 25.216 85.1441 25.0669 84.4849 24.79L83.7104 26.634C84.6512 27.0291 85.6899 27.216 86.8096 27.216V25.216ZM84.5004 24.7967C83.8327 24.5029 83.3442 24.1208 82.9966 23.6653L81.4067 24.8787C81.9871 25.6392 82.7625 26.2171 83.6949 26.6273L84.5004 24.7967ZM83.0041 23.6753C82.6599 23.2124 82.4686 22.6882 82.4318 22.0761L80.4354 22.1959C80.4947 23.1838 80.8154 24.0836 81.3992 24.8687L83.0041 23.6753ZM81.4336 23.136H83.6896V21.136H81.4336V23.136ZM82.6944 22.2331C82.7865 23.1772 83.2395 23.9612 83.9942 24.5384L85.2091 22.9496C84.8758 22.6948 84.7208 22.4068 84.6849 22.0389L82.6944 22.2331ZM84.0053 24.5467C84.7812 25.1231 85.7362 25.368 86.7856 25.368V23.368C86.043 23.368 85.542 23.1968 85.1979 22.9413L84.0053 24.5467ZM86.7856 25.368C87.7563 25.368 88.6524 25.1537 89.3621 24.6096L88.1452 23.0224C87.8949 23.2143 87.479 23.368 86.7856 23.368V25.368ZM89.3621 24.6096C90.0661 24.0699 90.4736 23.3227 90.4736 22.424H88.4736C88.4736 22.6453 88.4012 22.8261 88.1452 23.0224L89.3621 24.6096ZM90.4736 22.424C90.4736 21.9839 90.3743 21.549 90.1377 21.1571C89.9013 20.7656 89.5629 20.4751 89.1748 20.2689L88.2365 22.0351C88.3603 22.1009 88.406 22.1584 88.4256 22.1909C88.445 22.223 88.4736 22.2881 88.4736 22.424H90.4736ZM89.1959 20.2804C88.5668 19.9266 87.6719 19.6209 86.5756 19.3427L86.0837 21.2813C87.1313 21.5471 87.8205 21.8014 88.2154 22.0236L89.1959 20.2804ZM86.5833 19.3447C85.6314 19.095 84.8775 18.852 84.3092 18.6188L83.5501 20.4692C84.2297 20.748 85.0759 21.017 86.0759 21.2793L86.5833 19.3447ZM84.338 18.6312C83.8646 18.4194 83.4533 18.1153 83.0982 17.7095L81.593 19.0265C82.134 19.6447 82.7786 20.1246 83.5213 20.4568L84.338 18.6312ZM83.1196 17.7348C82.8665 17.4255 82.6976 16.9788 82.6976 16.304H80.6976C80.6976 17.3252 80.9607 18.2545 81.5717 19.0012L83.1196 17.7348ZM82.6976 16.304C82.6976 15.8457 82.8294 15.432 83.1114 15.0372L81.4839 13.8748C80.9659 14.6 80.6976 15.4183 80.6976 16.304H82.6976ZM83.1114 15.0372C83.3896 14.6477 83.8026 14.313 84.4004 14.0531L83.6029 12.2189C82.7287 12.599 82.0057 13.1443 81.4839 13.8748L83.1114 15.0372ZM84.4169 14.0457C85.0026 13.7783 85.6972 13.632 86.5216 13.632V11.632C85.458 11.632 84.4727 11.8217 83.5863 12.2263L84.4169 14.0457ZM86.5216 13.632C87.8068 13.632 88.7396 13.9541 89.4149 14.5087L90.6844 12.9633C89.5676 12.0459 88.1484 11.632 86.5216 11.632V13.632ZM89.4149 14.5087C90.0688 15.0459 90.4393 15.7784 90.4909 16.8099L92.4884 16.7101C92.412 15.1816 91.8224 13.8981 90.6844 12.9633L89.4149 14.5087ZM91.4896 15.76H89.3056V17.76H91.4896V15.76ZM90.3032 16.6904C90.2369 15.7404 89.8338 14.9272 89.0962 14.3279L87.835 15.8801C88.1214 16.1128 88.2783 16.4036 88.3081 16.8296L90.3032 16.6904ZM89.1082 14.3378C88.3827 13.7293 87.4588 13.48 86.4496 13.48V15.48C87.1364 15.48 87.5565 15.6467 87.823 15.8702L89.1082 14.3378ZM86.4496 13.48C85.531 13.48 84.6784 13.6763 83.9911 14.1741L85.1641 15.7939C85.4048 15.6197 85.8002 15.48 86.4496 15.48V13.48ZM83.9911 14.1741C83.2836 14.6864 82.8816 15.4198 82.8816 16.304H84.8816C84.8816 16.1002 84.9436 15.9536 85.1641 15.7939L83.9911 14.1741ZM82.8816 16.304C82.8816 16.9661 83.0987 17.5794 83.5626 18.0706L85.0166 16.6974C84.9365 16.6126 84.8816 16.5059 84.8816 16.304H82.8816ZM83.603 18.111C83.9889 18.4755 84.4454 18.761 84.956 18.977L85.7353 17.135C85.4138 16.999 85.1664 16.8365 84.9762 16.657L83.603 18.111ZM84.9983 18.9937C85.4688 19.168 86.0916 19.3607 86.855 19.5718L87.3882 17.6442C86.6476 17.4393 86.0865 17.264 85.6929 17.1182L84.9983 18.9937ZM86.8599 19.5731C87.7787 19.8223 88.4968 20.0638 89.0287 20.2939L89.8225 18.4581C89.1704 18.1762 88.3525 17.9057 87.3834 17.6429L86.8599 19.5731ZM89.0499 20.3027C89.4884 20.4805 89.859 20.75 90.1714 21.1226L91.7038 19.8374C91.1843 19.2179 90.5469 18.7515 89.8013 18.4493L89.0499 20.3027ZM90.1835 21.1368C90.4301 21.4198 90.5975 21.8258 90.6098 22.444L92.6094 22.404C92.5898 21.4222 92.3092 20.5322 91.6917 19.8232L90.1835 21.1368ZM90.6096 22.424C90.6096 22.9459 90.4687 23.3938 90.1883 23.7976L91.831 24.9384C92.3506 24.1902 92.6096 23.3421 92.6096 22.424H90.6096ZM90.1883 23.7976C89.9056 24.2047 89.4885 24.5533 88.8903 24.8263L89.7209 26.6457C90.5948 26.2467 91.3137 25.6833 91.831 24.9384L90.1883 23.7976ZM88.8995 24.8222C88.3301 25.0753 87.6409 25.216 86.8096 25.216V27.216C87.8663 27.216 88.8412 27.0367 89.7118 26.6498L88.8995 24.8222ZM96.8767 14.648V13.648H95.8767V14.648H96.8767ZM97.2847 23.768L96.5776 24.4751L96.5883 24.4858L96.5993 24.4962L97.2847 23.768ZM100.309 24.152H101.309V23.152H100.309V24.152ZM100.309 26V27H101.309V26H100.309ZM94.6927 14.648H95.6927V13.648H94.6927V14.648ZM92.9887 14.648H91.9887V15.648H92.9887V14.648ZM92.9887 12.848V11.848H91.9887V12.848H92.9887ZM94.6927 12.848V13.848H95.6927V12.848H94.6927ZM94.6927 9.536V8.536H93.6927V9.536H94.6927ZM96.8767 9.536H97.8767V8.536H96.8767V9.536ZM96.8767 12.848H95.8767V13.848H96.8767V12.848ZM100.309 12.848H101.309V11.848H100.309V12.848ZM100.309 14.648V15.648H101.309V14.648H100.309ZM95.8767 14.648V22.4H97.8767V14.648H95.8767ZM95.8767 22.4C95.8767 23.1386 96.0263 23.9238 96.5776 24.4751L97.9918 23.0609C97.9979 23.067 97.9686 23.0423 97.937 22.9362C97.9043 22.8266 97.8767 22.6543 97.8767 22.4H95.8767ZM96.5993 24.4962C97.1576 25.0216 97.9583 25.152 98.7007 25.152V23.152C98.4226 23.152 98.23 23.1249 98.1044 23.0909C97.9796 23.057 97.9552 23.0258 97.9701 23.0398L96.5993 24.4962ZM98.7007 25.152H100.309V23.152H98.7007V25.152ZM99.3087 24.152V26H101.309V24.152H99.3087ZM100.309 25H98.3407V27H100.309V25ZM98.3407 25C97.2594 25 96.6348 24.7493 96.2822 24.4245L94.9272 25.8955C95.7905 26.6907 96.99 27 98.3407 27V25ZM96.2822 24.4245C95.9695 24.1365 95.6927 23.552 95.6927 22.4H93.6927C93.6927 23.808 94.0238 25.0635 94.9272 25.8955L96.2822 24.4245ZM95.6927 22.4V14.648H93.6927V22.4H95.6927ZM94.6927 13.648H92.9887V15.648H94.6927V13.648ZM93.9887 14.648V12.848H91.9887V14.648H93.9887ZM92.9887 13.848H94.6927V11.848H92.9887V13.848ZM95.6927 12.848V9.536H93.6927V12.848H95.6927ZM94.6927 10.536H96.8767V8.536H94.6927V10.536ZM95.8767 9.536V12.848H97.8767V9.536H95.8767ZM96.8767 13.848H100.309V11.848H96.8767V13.848ZM99.3087 12.848V14.648H101.309V12.848H99.3087ZM100.309 13.648H96.8767V15.648H100.309V13.648Z" fill="#29125E"/>
<circle cx="62.5" cy="24.5" r="2.5" fill="#00A6CB"/>
</svg>
