<svg width="31" height="31" viewBox="0 0 31 31" fill="none" xmlns="http://www.w3.org/2000/svg">
<path d="M21.6184 18.7632C21.4845 18.7634 21.3518 18.7371 21.228 18.6859C21.1043 18.6346 20.9919 18.5594 20.8973 18.4646L15.5 13.0682L10.1035 18.4638C9.91228 18.655 9.65288 18.7625 9.38239 18.7625C9.1119 18.7625 8.85249 18.655 8.66123 18.4638C8.46997 18.2725 8.36252 18.0131 8.36252 17.7426C8.36252 17.4721 8.46997 17.2127 8.66123 17.0215L14.7797 10.903C14.971 10.7119 15.2304 10.6046 15.5008 10.6046C15.7712 10.6046 16.0306 10.7119 16.222 10.903L22.3404 17.0215C22.4834 17.1641 22.5808 17.3459 22.6203 17.544C22.6598 17.742 22.6396 17.9474 22.5623 18.1339C22.4849 18.3205 22.3539 18.4799 22.1859 18.5919C22.0179 18.7039 21.8204 18.7635 21.6184 18.7632V18.7632Z" fill="#00738C"/>
</svg>
